HIERARCHY
ROOT Hips
{
	OFFSET -3.958830 18.904000 13.208200
	CHANNELS 6 Xposition Yposition Zposition Zrotation Yrotation Xrotation 
	JOINT LHipJoint
	{
		OFFSET 0.000000 0.000000 0.000000
		CHANNELS 3 Zrotation Yrotation Xrotation
		JOINT LeftUpLeg
		{
			OFFSET 1.800000 -1.400000 0.085000
			CHANNELS 3 Zrotation Yrotation Xrotation
			JOINT LeftLeg
			{
				OFFSET 2.215000 -6.000000 0.000000
				CHANNELS 3 Zrotation Yrotation Xrotation
				JOINT LeftFoot
				{
					OFFSET 2.500000 -6.900000 0.000000
					CHANNELS 3 Zrotation Yrotation Xrotation
					JOINT LeftToeBase
					{
						OFFSET 0.200000 -0.500000 1.950000
						CHANNELS 3 Zrotation Yrotation Xrotation
						End Site
						{
							OFFSET 0.000000 0.000000 0.000000
						}
					}
				}
			}
		}
	}
	JOINT RHipJoint
	{
		OFFSET 0.000000 0.000000 0.000000
		CHANNELS 3 Zrotation Yrotation Xrotation
		JOINT RightUpLeg
		{
			OFFSET -1.800000 -1.400000 0.085000
			CHANNELS 3 Zrotation Yrotation Xrotation
			JOINT RightLeg
			{
				OFFSET -2.215000 -6.000000 0.000000
				CHANNELS 3 Zrotation Yrotation Xrotation
				JOINT RightFoot
				{
					OFFSET -2.500000 -6.900000 0.000000
					CHANNELS 3 Zrotation Yrotation Xrotation
					JOINT RightToeBase
					{
						OFFSET -0.200000 -0.500000 1.950000
						CHANNELS 3 Zrotation Yrotation Xrotation
						End Site
						{
							OFFSET 0.000000 0.000000 0.000000
						}
					}
				}
			}
		}
	}
	JOINT LowerBack
	{
		OFFSET 0.000000 0.000000 0.000000
		CHANNELS 3 Zrotation Yrotation Xrotation
		JOINT Spine
		{
			OFFSET -0.087000 1.940000 -0.288900
			CHANNELS 3 Zrotation Yrotation Xrotation
			JOINT Spine1
			{
				OFFSET 0.000000 1.950000 0.060000
				CHANNELS 3 Zrotation Yrotation Xrotation
				JOINT Neck
				{
					OFFSET 0.000000 0.000000 0.000000
					CHANNELS 3 Zrotation Yrotation Xrotation
					JOINT Neck1
					{
						OFFSET 0.000000 1.600000 0.340000
						CHANNELS 3 Zrotation Yrotation Xrotation
						JOINT Head
						{
							OFFSET 0.000000 1.667000 -0.240000
							CHANNELS 3 Zrotation Yrotation Xrotation
							End Site
							{
								OFFSET 0.000000 0.000000 0.000000
							}
						}
					}
				}
				JOINT LeftShoulder
				{
					OFFSET 0.000000 0.000000 0.000000
					CHANNELS 3 Zrotation Yrotation Xrotation
					JOINT LeftArm
					{
						OFFSET 2.700000 1.550000 -0.730000
						CHANNELS 3 Zrotation Yrotation Xrotation
						JOINT LeftForeArm
						{
							OFFSET 5.450000 0.000000 0.000000
							CHANNELS 3 Zrotation Yrotation Xrotation
							JOINT LeftHand
							{
								OFFSET 3.450000 0.000000 0.000000
								CHANNELS 3 Zrotation Yrotation Xrotation
								JOINT LeftHandIndex1
								{
									OFFSET 0.750000 0.000000 0.000000
									CHANNELS 3 Zrotation Yrotation Xrotation
									End Site
									{
										OFFSET 0.000000 0.000000 0.000000
									}
								}
							}
						}
					}
				}
				JOINT RightShoulder
				{
					OFFSET 0.000000 0.000000 0.000000
					CHANNELS 3 Zrotation Yrotation Xrotation
					JOINT RightArm
					{
						OFFSET -2.700000 1.550000 -0.730000
						CHANNELS 3 Zrotation Yrotation Xrotation
						JOINT RightForeArm
						{
							OFFSET -5.450000 0.000000 0.000000
							CHANNELS 3 Zrotation Yrotation Xrotation
							JOINT RightHand
							{
								OFFSET -3.450000 0.000000 0.000000
								CHANNELS 3 Zrotation Yrotation Xrotation
								JOINT RightHandIndex1
								{
									OFFSET -0.750000 0.000000 0.000000
									CHANNELS 3 Zrotation Yrotation Xrotation
									End Site
									{
										OFFSET 0.000000 0.000000 0.000000
									}
								}
							}
						}
					}
				}
			}
		}
	}
}
MOTION
Frames: 14
Frame Time: 0.016667
-10.819530 17.001070 -2.077660 -4.938447 3.861496 -5.108416 -15.168062 13.248509 3.640613 17.439720 -0.508784 -9.226720 -4.158489 3.300377 -4.691282 -0.688927 4.835745 3.023482 0.138650 0.028260 0.119920 18.121029 -10.883184 1.788110 -25.643476 0.558626 -10.940536 8.261442 -9.792745 27.117539 -0.548614 -5.933991 1.968658 0.086430 0.607840 0.491480 -3.446102 -2.656862 -7.762664 16.375757 1.065135 20.598987 0.970986 0.422253 25.187428 1.644689 -2.865314 -16.321742 -8.436694 9.226667 34.253340 -10.484980 11.718860 -13.778400 3.704135 -32.636535 5.275444 -14.605005 -29.831317 -1.801725 -5.387080 -36.606258 0.687360 -3.833640 2.844628 0.589660 0.426300 0.041270 0.082480 -7.325733 32.329543 15.411026 24.511611 10.168293 -1.351983 -14.685038 -1.144810 -0.617337 2.371539 -1.353004 -0.330860 0.351000 0.310820 -0.109920 
-10.654030 17.067780 -2.056480 -5.785376 4.628789 -5.231319 -15.171060 13.115761 3.572119 17.541439 -0.503846 -9.136056 -4.982619 3.411070 -4.483026 -0.692095 4.874331 3.023558 0.146850 0.031410 0.146560 18.166205 -10.590759 2.082021 -26.891219 1.182958 -12.873674 12.904925 -12.820458 32.245112 -0.738205 -7.047716 1.570433 0.098460 0.593710 0.443470 -3.508319 -2.774108 -7.893865 17.480217 0.374761 21.350975 1.605400 -0.190970 24.238412 1.129895 -2.899266 -16.079089 -8.504599 9.215640 34.176310 -10.589170 12.014180 -13.640530 4.476428 -32.209677 4.800952 -12.213182 -28.504106 -3.239939 -7.728069 -40.308337 1.606980 -3.745075 2.929735 0.606690 0.407130 0.031930 0.086940 -7.101076 31.762568 15.214226 24.309856 10.194575 -1.714504 -15.449544 -0.269387 -0.824986 2.362178 -1.371446 -0.366350 0.368710 0.281810 -0.127520 
-10.500720 17.132830 -2.030730 -6.606795 5.556625 -5.591598 -15.181497 12.929578 3.489463 17.772515 -0.432069 -8.861547 -6.145778 3.567837 -4.274951 -0.626367 4.928752 3.004410 0.156760 0.060990 0.142770 18.216015 -10.170031 2.514127 -28.357466 1.892140 -14.259073 18.856848 -16.923130 36.765370 -1.062640 -8.415174 1.141181 0.095860 0.570100 0.427930 -3.563265 -2.954437 -8.088975 18.708482 -0.438414 22.331345 1.893713 -0.746442 23.148007 0.813098 -3.083529 -16.076324 -9.044141 9.291998 34.622734 -10.824400 12.235110 -13.666600 4.415577 -31.906382 4.325508 -9.009318 -26.670857 -4.644952 -10.730992 -43.677131 3.056838 -3.668638 3.057512 0.598840 0.390370 0.050530 0.104020 -6.387088 31.461161 15.172533 23.605376 10.130150 -1.839731 -15.470402 0.246347 -0.875394 2.372368 -1.363266 -0.346660 0.361070 0.249570 -0.113860 
-10.356540 17.192400 -2.007230 -7.401276 6.282132 -6.307711 -15.190421 12.767129 3.357574 17.689860 -0.291801 -8.078238 -6.550785 3.652375 -4.238303 -0.596857 4.935992 3.000688 0.185860 0.090910 0.172610 18.269433 -9.691446 3.053242 -29.978961 2.709014 -15.645242 25.808728 -22.122248 40.994759 -1.519082 -9.848861 0.724302 0.091020 0.508310 0.391460 -3.618904 -3.196601 -8.307846 20.101212 -1.467296 23.911120 1.548744 -1.067783 21.560117 0.713499 -3.470166 -16.191895 -10.404432 9.490181 36.331950 -10.679570 11.994170 -15.114300 4.511194 -31.365181 3.989937 -6.059105 -24.678045 -5.654768 -14.233524 -46.750961 4.882111 -3.545392 3.135787 0.665050 0.315220 0.102600 0.108950 -6.216688 31.238259 15.043731 23.779389 10.546106 -1.815562 -14.956399 0.622309 -0.763176 2.384495 -1.293887 -0.345450 0.380860 0.219590 -0.123090 
-10.226010 17.237330 -1.987580 -8.399006 7.371689 -6.731387 -15.190914 12.604856 3.171282 17.781998 -0.192287 -8.043841 -6.717382 3.798270 -3.561078 -0.616900 4.983311 2.993070 0.123350 0.004540 0.136010 18.327074 -9.247964 3.591452 -31.323561 3.223547 -16.808336 34.197950 -28.101548 43.237922 -1.942120 -11.072626 0.410602 0.045370 0.548400 0.394590 -3.688772 -3.388717 -8.461973 21.500860 -2.289570 24.750176 1.623857 -1.440858 20.201427 0.383075 -3.498922 -16.039800 -10.746017 9.703605 37.162080 -10.508150 12.076340 -15.010290 4.936438 -30.891900 3.439137 -3.170730 -23.450301 -6.048421 -17.622461 -48.997254 6.842828 -3.565968 3.192243 0.685990 0.325810 0.085590 0.086780 -5.949307 30.624872 14.856504 23.854298 10.638064 -1.960247 -14.875881 0.772630 -0.684136 2.364653 -1.228228 -0.372050 0.414590 0.281880 -0.131490 
-10.098720 17.268990 -1.942730 -9.492363 6.415980 -7.082517 -15.147017 12.371748 2.932720 18.021794 0.049741 -7.001543 -6.174561 3.899928 -3.173474 -0.645506 5.027674 2.990494 0.119550 -0.011170 0.154110 18.430628 -8.946841 4.092430 -32.141477 4.229196 -18.769376 42.747243 -33.853612 44.534112 -2.289254 -11.952300 0.204164 0.053260 0.559260 0.396530 -3.872739 -3.180791 -8.525669 23.384387 -2.405466 24.993244 1.447741 -1.186516 19.622274 0.057282 -3.517950 -15.290951 -10.547307 9.630121 36.915945 -11.063340 12.431090 -14.946940 6.224507 -29.621719 2.901224 -1.491622 -23.041541 -6.068356 -20.198651 -51.273074 8.534942 -3.598721 3.226776 0.688000 0.344600 0.071690 0.075510 -6.643757 29.408372 14.280532 24.534039 11.309428 -1.865571 -14.728526 1.567184 -0.791506 2.327901 -1.227483 -0.393190 0.423310 0.292410 -0.150660 
-9.986170 17.287260 -1.893140 -10.287268 5.439984 -7.131712 -15.138101 12.291124 2.756512 17.914178 0.216088 -6.367753 -5.556277 3.969819 -2.648571 -0.661585 5.003109 2.986503 0.107150 -0.034760 0.138810 18.467352 -8.726395 4.449986 -32.172442 4.999590 -20.389130 50.996563 -39.134655 44.666651 -2.520138 -12.432556 0.114601 0.043600 0.559530 0.401990 -3.924985 -3.175799 -8.583622 24.144699 -2.088493 25.045922 2.169492 -0.756463 18.847706 -0.399868 -3.488638 -14.931161 -10.429096 9.821350 37.144016 -10.483820 12.740410 -14.435670 7.488283 -28.380879 2.656635 -0.899644 -22.771061 -5.975593 -22.014212 -53.629713 9.881997 -3.611795 3.297094 0.680000 0.350690 0.047720 0.054090 -6.996303 28.408859 13.943999 24.690394 11.549305 -1.738137 -14.211173 2.269069 -0.815237 2.305074 -1.220985 -0.389950 0.397610 0.319990 -0.161900 
-9.866880 17.297990 -1.849630 -11.489963 5.036949 -6.703219 -15.070810 12.118196 2.595571 18.119940 0.230593 -6.485876 -5.127255 4.007879 -2.134632 -0.686193 4.955010 3.046937 0.108190 -0.014750 0.144490 18.555824 -8.698657 4.644843 -31.350647 5.206349 -21.927981 59.803810 -43.654111 42.820064 -2.649135 -12.556210 0.153739 0.076160 0.613350 0.385150 -4.142893 -2.817002 -8.539259 26.098898 -2.131602 24.113790 2.199295 -0.566102 17.801850 -0.800969 -3.172774 -13.687525 -9.320483 9.718870 36.316417 -11.410500 13.760850 -13.446720 8.191141 -26.550384 1.844870 -0.074467 -24.117878 -5.138609 -23.845474 -54.920233 11.472477 -3.691070 3.258157 0.640950 0.410180 0.019950 0.094080 -7.014811 26.239979 12.929881 25.185842 12.415633 -1.467431 -14.168710 2.690546 -0.978255 2.286404 -1.251030 -0.426620 0.429670 0.279770 -0.153910 
-9.757750 17.304780 -1.813290 -12.357007 5.017266 -6.247758 -15.032747 12.086102 2.467792 18.064609 0.173794 -7.080152 -4.682335 4.073007 -1.188665 -0.705477 4.884436 3.104955 0.054470 -0.074730 0.118080 18.590949 -8.742559 4.729774 -30.167705 4.934208 -23.394507 68.968923 -47.581529 39.832185 -2.682353 -12.487728 0.238059 0.055770 0.678910 0.386030 -4.249682 -2.628132 -8.489724 27.162071 -2.123349 23.200383 2.557323 -0.513290 17.003299 -0.934780 -2.831262 -13.072843 -8.317546 9.557303 35.760382 -12.612690 14.886880 -11.417650 9.451687 -25.148862 1.574307 0.112698 -24.507300 -4.702313 -24.521548 -56.633150 12.355233 -3.768872 3.268852 0.586610 0.487410 -0.034860 0.105220 -8.010845 24.675010 12.249843 26.121692 12.955881 -1.302576 -14.102177 3.552384 -1.129698 2.259864 -1.279541 -0.456720 0.428260 0.282930 -0.152440 
-9.656290 17.315240 -1.778050 -12.477272 4.401170 -6.033365 -15.035476 12.179580 2.393857 17.556706 0.165840 -7.194135 -4.606876 4.191803 -0.170377 -0.719369 4.831591 3.140192 0.032980 -0.118020 0.128900 18.570943 -8.770247 4.767479 -28.805623 4.854213 -24.764545 77.281604 -50.074953 36.538493 -2.694100 -12.344894 0.301695 0.037700 0.692190 0.372820 -4.220662 -2.675486 -8.476483 27.065554 -1.709518 23.265260 3.261189 0.056670 16.263129 -1.135532 -2.860062 -12.919251 -8.275548 9.456067 35.408904 -12.936890 15.327780 -10.368400 9.844797 -24.125755 1.303156 0.766927 -24.532732 -4.560513 -24.990359 -58.182384 13.098920 -3.781944 3.300935 0.577350 0.499000 -0.062960 0.099050 -7.990138 24.002750 12.204191 25.889131 12.321855 -1.513725 -14.095152 4.400477 -1.232779 2.257144 -1.291191 -0.479950 0.418400 0.278500 -0.163550 
-9.548400 17.331130 -1.748460 -12.646015 4.586368 -6.441985 -15.021620 12.252757 2.383504 17.154347 0.170361 -6.807864 -4.862716 4.302576 0.363406 -0.739251 4.833392 3.142665 0.067790 -0.096100 0.161940 18.564843 -8.875857 4.664914 -27.208669 4.359767 -24.668789 84.498560 -50.426202 32.304837 -2.689781 -12.128578 0.373286 0.057540 0.671980 0.361030 -4.240014 -2.642423 -8.421048 27.678368 -1.946228 23.528058 2.961943 0.216713 15.826963 -1.292334 -2.860789 -12.693450 -8.334691 9.196647 35.286597 -12.882480 15.205360 -10.348310 10.387461 -23.333692 0.976928 1.858492 -24.679681 -4.543696 -23.763691 -59.207017 12.808021 -3.756894 3.336923 0.595820 0.484940 -0.064090 0.107900 -8.277506 23.214502 12.045247 26.045263 11.805062 -1.652998 -13.924227 5.246447 -1.319735 2.238501 -1.309671 -0.491460 0.408510 0.250020 -0.178720 
-9.449010 17.342370 -1.710990 -12.668879 5.053819 -6.740178 -15.021837 12.280889 2.435026 16.748367 0.145742 -6.076397 -5.250393 4.320180 -0.084439 -0.698837 4.870292 3.137112 0.092280 -0.074080 0.180240 18.556870 -8.923469 4.547417 -25.518640 4.084503 -24.186038 87.954236 -50.748760 30.450568 -2.699828 -12.062534 0.387188 0.064990 0.657500 0.356560 -4.237112 -2.671262 -8.389706 27.863999 -2.113175 23.415921 3.048590 0.143858 15.530835 -1.704057 -2.878026 -12.559659 -8.520484 9.153379 35.326753 -12.154670 15.036350 -10.019850 11.106773 -22.648481 0.829855 2.402652 -24.901369 -4.477875 -21.556736 -60.180064 11.828578 -3.730594 3.389829 0.586850 0.466440 -0.062730 0.113100 -8.221541 22.437319 11.883663 25.724620 11.335288 -1.807874 -14.057862 6.027118 -1.419239 2.245797 -1.329906 -0.477390 0.391680 0.228120 -0.172500 
-9.355170 17.347680 -1.682430 -12.131003 5.865581 -6.989205 -15.028896 12.360818 2.412005 15.648062 0.160551 -5.635476 -5.229315 4.327428 0.056692 -0.698779 4.835352 3.190915 0.044110 -0.094660 0.108700 18.545854 -8.961803 4.502351 -24.129477 3.947795 -23.877144 88.291456 -50.963378 30.377290 -2.691508 -12.092810 0.426925 0.063990 0.729610 0.324670 -4.222426 -2.752312 -8.354548 27.356600 -2.308506 23.472644 2.995207 0.032631 15.001928 -2.090893 -2.726468 -12.326550 -8.261905 9.219162 35.206796 -11.529390 15.017230 -9.404350 11.190130 -22.094552 0.462527 3.917630 -25.123088 -4.323378 -20.377725 -60.795155 11.591490 -3.776877 3.350381 0.563850 0.503180 -0.095920 0.138070 -7.563530 21.638009 11.757320 25.032845 10.867244 -1.867173 -13.893913 7.003355 -1.491471 2.205745 -1.288097 -0.512580 0.454490 0.246930 -0.145280 
-9.256380 17.344510 -1.658530 -11.684749 6.782996 -6.952274 -15.027480 12.376243 2.373976 14.613591 0.121020 -5.579400 -5.431159 4.342225 0.377650 -0.711166 4.768445 3.227881 0.054290 -0.067480 0.100710 18.555640 -8.957920 4.521032 -22.948717 4.131970 -23.947810 86.244291 -50.379674 31.254290 -2.702774 -12.154593 0.423681 0.082840 0.747180 0.317030 -4.247886 -2.760388 -8.333075 27.199681 -2.575034 23.391775 2.702130 -0.065898 14.233641 -2.399593 -2.578577 -11.881297 -7.910548 9.271149 34.881460 -11.221090 15.007410 -9.692810 11.449913 -21.143885 0.016714 5.357752 -25.669156 -3.968186 -19.580442 -61.655780 11.621403 -3.796609 3.346192 0.558260 0.510820 -0.094150 0.158560 -7.247910 20.456186 11.316272 24.551342 10.995998 -1.762550 -13.909240 7.329940 -1.528212 2.196151 -1.278061 -0.518250 0.478400 0.233720 -0.132190 
